<svg t="1713108714810" class="icon" viewBox="0 0 1313 1024" version="1.1" xmlns="http://www.w3.org/2000/svg" p-id="34820" width="16" height="16"><path d="M216.13974999 781.435339c-45.838517-75.95580799-72.23933399-165.078895-72.23933399-260.39409801C143.900416 243.263443 368.057389 18.08248201 644.570261 18.08248201c61.34892201 0 120.125827 11.083163 174.45139599 31.37619299l-110.909935 64.32451099c-17.76920199 10.30011402-23.85289399 33.12902-13.59494499 50.976526a37.056315 37.056315 0 0 0 50.741611 13.66120301l154.989603-89.89409c146.695301 87.701551 244.974045 248.576073 244.974045 432.51441599 0 72.161029-15.11888001 140.780265-42.36900501 202.81586102l-103.93477099 60.28276899a19.29916 19.29916 0 0 0-7.017329 26.29841902 19.118456 19.118456 0 0 0 26.17794899 7.04744598l50.904246-29.526992C980.44431401 929.738903 823.46696999 1024 644.570261 1024c-111.030405 0-213.615921-36.303383-296.637245-97.742656l153.78491101-89.201392a19.29916 19.29916 0 0 0 7.01732899-26.292395 19.118456 19.118456 0 0 0-26.17795001-7.04744699l-166.717276 96.69457499a504.916383 504.916383 0 0 1-48.83217499-49.042997l72.70314-42.16420701c20.497828-11.89030601 27.527204-38.22486599 15.691109-58.81906899-11.836095-20.594204-38.050185-27.647673-58.54801401-15.757367l-80.71434 46.808294zM1165.65963001 563.645161l64.34257998-37.315324a16.841589 16.841589 0 0 1 23.06984501 6.204162 17.00422199 17.00422199 0 0 1-6.180068 23.172244l-64.34258101 37.32134701a16.841589 16.841589 0 0 1-23.06984499-6.21018601 17.00422199 17.00422199 0 0 1 6.186092-23.172243z" fill="#2c2c2c" p-id="34821"></path><path d="M1277.14179401 504.87427899a16.96205799 16.883753 90 1 0 33.76750599 0 16.96205799 16.883753 90 1 0-33.76750599 0Z" fill="#2c2c2c" p-id="34822"></path><path d="M40.411381 287.632236h-28.671661c-3.55384 0-5.24040899 0.445736-6.806508 1.28902-1.572123 0.843284-2.806932 2.07207001-3.644192 3.644192-0.843284 1.566099-1.28902 3.252667-1.28902 6.806508v3.62612199c0 3.55384 0.445736 5.24040899 1.28902 6.80650701 0.843284 1.572123 2.07207001 2.806932 3.644192 3.64419299 1.566099 0.843284 3.252667 1.28902 6.806508 1.28902h28.671661v28.67166101c0 3.55384 0.445736 5.24040899 1.28902 6.806508 0.843284 1.572123 2.07207001 2.806932 3.63816901 3.644192 1.572123 0.843284 3.252667 1.28902 6.81253099 1.28902h3.626122c3.55384 0 5.24040899-0.445736 6.806508-1.28902 1.572123-0.843284 2.806932-2.07207001 3.644192-3.644192 0.843284-1.566099 1.28902-3.252667 1.28902-6.806508v-28.67166101h28.671661c3.55384 0 5.24040899-0.445736 6.806508-1.28901998 1.572123-0.843284 2.806932-2.07207001 3.644192-3.64419301 0.843284-1.566099 1.28902-3.252667 1.28902-6.80650699v-3.62612201c0-3.55384-0.445736-5.24040899-1.28902-6.806508a8.758108 8.758108 0 0 0-3.644192-3.644192c-1.566099-0.843284-3.252667-1.28902-6.806508-1.28902h-28.671661v-28.671661c0-3.55384-0.445736-5.24040899-1.28902-6.806508a8.758108 8.758108 0 0 0-3.644192-3.644192c-1.566099-0.843284-3.252667-1.28902-6.806508-1.28902h-3.626122c-3.55384 0-5.24040899 0.445736-6.806508 1.28902-1.572123 0.843284-2.806932 2.07207001-3.644192 3.644192-0.843284 1.566099-1.28902 3.252667-1.28902 6.806508v28.671661zM1081.40952 947.88758199h-16.263337c-1.867272 0-3.589981 0.46983001-5.047658 1.30709101a9.43273601 9.43273601 0 0 0-3.499629 3.49962901 10.089292 10.089292 0 0 0-1.31311399 5.04765799c0 1.867272 0.475853 3.589981 1.31311399 5.04765801s2.03592899 2.662369 3.493605 3.49962899c1.4637 0.837261 3.18038601 1.30709002 5.053682 1.30709h16.263337v16.263338c0 1.867272 0.46983001 3.589981 1.30709001 5.047658 0.837261 1.4637 2.04195201 2.662369 3.49962899 3.49962901 1.457677 0.843284 3.18038601 1.31311399 5.04765799 1.31311399 1.867272 0 3.589981-0.475853 5.04765801-1.31311399s2.662369-2.03592899 3.493606-3.49360601c0.843284-1.4637 1.31311399-3.18038601 1.313114-5.053681v-16.263338h16.263337c1.867272 0 3.589981-0.46983001 5.04765801-1.30709 1.4637-0.837261 2.662369-2.04195201 3.49962899-3.49962899 0.843284-1.457677 1.31311399-3.18038601 1.313114-5.04765801 0-1.867272-0.475853-3.589981-1.313114-5.04765799a9.43273601 9.43273601 0 0 0-3.49360499-3.49962901 10.089292 10.089292 0 0 0-5.05368201-1.30709099h-16.263337v-16.26333701c0-1.867272-0.46983001-3.589981-1.30709-5.047658a9.43273601 9.43273601 0 0 0-3.49963-3.49962899 10.089292 10.089292 0 0 0-5.04765801-1.31311401c-1.867272 0-3.589981 0.475853-5.04765799 1.31311401a9.43273601 9.43273601 0 0 0-3.49962899 3.49360599 10.089292 10.089292 0 0 0-1.30709001 5.053681v16.26333701zM90.532577 951.04387401l467.926326-271.39895501a37.056315 37.056315 0 0 1 50.74763501 13.66120301c10.257949 17.847507 4.168233 40.67038999-13.600968 50.97652599l-467.92632701 271.398956a37.056315 37.056315 0 0 1-50.747635-13.661203c-10.257949-17.847507-4.168233-40.67038999 13.600969-50.97652699zM120.75828999 780.339069l487.839879-282.945925a25.58765001 25.58765001 0 0 1 35.03845601 9.432736 25.840636 25.840636 0 0 1-9.39057101 35.207113l-487.833856 282.93990101a25.58765001 25.58765001 0 0 1-35.04447898-9.43273501 25.840636 25.840636 0 0 1 9.396594-35.20109zM588.190693 268.315005l370.882391-215.10973901a37.056315 37.056315 0 0 1 50.747635 13.66120402c10.257949 17.847507 4.168233 40.67038999-13.60096801 50.97652599l-370.87636799 215.109739a37.056315 37.056315 0 0 1-50.747636-13.661203c-10.257949-17.847507-4.168233-40.67038999 13.600969-50.976527z" fill="#2c2c2c" p-id="34823"></path><path d="M1019.30766602 36.152856a36.140749 35.978116 90 1 0 71.95623099 0 36.140749 35.978116 90 1 0-71.95623099 0Z" fill="#2c2c2c" p-id="34824"></path></svg>