<svg t="1713108456749" class="icon" viewBox="0 0 1024 1024" version="1.1" xmlns="http://www.w3.org/2000/svg" p-id="20703" width="16" height="16"><path d="M853.333333 256h-341.333333l-85.333333-85.333333H170.666667a85.333333 85.333333 0 0 0-85.333334 85.333333v512a85.333333 85.333333 0 0 0 85.333334 85.333333h682.666666a85.333333 85.333333 0 0 0 85.333334-85.333333V341.333333a85.333333 85.333333 0 0 0-85.333334-85.333333z m-341.333333 85.333333a106.666667 106.666667 0 1 1-106.666667 106.666667A106.24 106.24 0 0 1 512 341.333333z m192 426.666667h-384v-42.666667a128 128 0 0 1 128-128h128a128 128 0 0 1 128 128v42.666667z" fill="#000000" p-id="20704"></path></svg>