<svg t="1713108364672" class="icon" viewBox="0 0 1024 1024" version="1.1" xmlns="http://www.w3.org/2000/svg" p-id="17302" width="16" height="16"><path d="M868.10819 738.718476l-337.822476 195.047619a36.571429 36.571429 0 0 1-36.571428 0l-337.822476-195.047619A36.571429 36.571429 0 0 1 137.606095 707.047619V316.952381a36.571429 36.571429 0 0 1 18.285715-31.670857l337.822476-195.047619a36.571429 36.571429 0 0 1 36.571428 0l337.822476 195.047619a36.571429 36.571429 0 0 1 18.285715 31.670857v390.095238a36.571429 36.571429 0 0 1-18.285715 31.670857zM463.238095 516.412952V707.047619a36.571429 36.571429 0 0 0 73.142857 0v-179.46819l140.53181-128.804572a36.571429 36.571429 0 1 0-49.444572-53.930667l-121.563428 111.445334-121.563429-111.420953a36.571429 36.571429 0 1 0-49.444571 53.881905L463.238095 516.437333z" fill="#152038" p-id="17303"></path></svg>