<svg t="1713108608944" class="icon" viewBox="0 0 1024 1024" version="1.1" xmlns="http://www.w3.org/2000/svg" p-id="28715" width="16" height="16"><path d="M526.1312 134.4512a377.5488 377.5488 0 1 1 9.0624 755.0464H190.5152a41.9584 41.9584 0 0 1-29.6704-71.68l70.3232-70.3232-5.8624-7.4752a376.064 376.064 0 0 1-76.5184-215.04l-0.2048-13.2096A377.5744 377.5744 0 0 1 526.1312 134.4512z" fill="#2D2D2D" p-id="28716"></path><path d="M552.2432 316.928a41.9584 41.9584 0 0 1 18.5344 52.608l-2.0992 4.4032-59.6224 107.6992h109.696a41.9584 41.9584 0 0 1 38.6304 58.3168l-2.0992 4.2496-90.3936 160.3072a41.9584 41.9584 0 0 1-75.264-36.8384l2.176-4.4032 55.1168-97.7408h-109.0304a41.9584 41.9584 0 0 1-38.7584-58.0096l2.0992-4.1984 93.9776-170.0352a41.9584 41.9584 0 0 1 57.0112-16.4096z" fill="#FFFFFF" p-id="28717"></path></svg>